<svg xmlns="http://www.w3.org/2000/svg" xmlns:xlink="http://www.w3.org/1999/xlink" viewBox="0 0 145 145"><defs><path id="A" d="M.4.4h144.1v144.1H.4z"/></defs><clipPath id="B"><use xlink:href="#A"/></clipPath><path d="M72.5 8.2C37 8.2 8.2 37 8.2 72.5s28.9 64.3 64.3 64.3 64.3-28.9 64.3-64.3C136.8 37 108 8.2 72.5 8.2m0 136.4C32.8 144.6.4 112.3.4 72.5.4 32.8 32.7.4 72.5.4s72.1 32.3 72.1 72.1c0 39.7-32.4 72.1-72.1 72.1m16.3-95V54c0 .5.4 1 1 1H109c.5 0 1-.4 1-1v-4.4c0-.5-.4-1-1-1H89.8c-.6.1-1 .5-1 1M58.1 89.8H44.9c-.5 0-1-.4-1-1V77c0-.5.4-1 1-1h14s5.4-.1 5.4 7.1c0 6-4 6.7-6.2 6.7M43.9 57.7c0-.5.4-1 1-1h14s3.6 0 3.6 5.3-2.1 6.1-4.5 6.1H45c-.5 0-1-.4-1-1v-9.4zm24.8 13.8c-.6-.2-.7-1.1-.1-1.4 2.2-1.1 4.8-3.6 4.8-8.8 0-9.2-6.4-13.7-14.5-13.7H33.5c-.7 0-1.3.6-1.3 1.3v48.7c0 .7.6 1.3 1.3 1.3h25.4s16.3.5 16.3-15.2c0 .1.5-9.9-6.5-12.2m23.7 4.6c-.7 0-1.2-.7-1-1.4.7-2.3 2.9-6.5 8.7-6.5 6 0 7.4 4.5 7.7 6.7.1.6-.4 1.2-1.1 1.2H92.4zm7.5-15.5c-19.7 0-19.7 19.6-19.7 19.7 0 0-1.3 19.6 19.7 19.6 0 0 15.9.9 17.4-11.6.1-1.1-.7-2.1-1.8-2.1H110c-.8 0-1.5.5-1.7 1.3-.5 1.6-2.2 4.2-8.1 4.2 0 0-7.6.5-8.9-6.8-.2-1.1.7-2.1 1.8-2.1H116a1.79 1.79 0 0 0 1.8-1.8c.2-5.1-.7-20.4-17.9-20.4" clip-path="url(#B)" fill="#333033"/></svg>