<svg xmlns="http://www.w3.org/2000/svg" xmlns:xlink="http://www.w3.org/1999/xlink" viewBox="0 0 145 145"><defs><path id="A" d="M.3.4h360.6v145.3H.3z"/></defs><clipPath id="B"><use xlink:href="#A"/></clipPath><path d="M72.5 8.1C37 8.1 8.1 37 8.1 72.6S37 137 72.5 137s64.4-28.9 64.4-64.4S108 8.1 72.5 8.1m0 136.7C32.7 144.8.3 112.4.3 72.6S32.7.4 72.5.4s72.2 32.4 72.2 72.2-32.4 72.2-72.2 72.2M61.2 72.9v41.8a1.11 1.11 0 0 0 1.1 1.1h15.5a1.11 1.11 0 0 0 1.1-1.1V72.2h11.3c.6 0 1-.4 1.1-1l1.1-12.8c.1-.6-.4-1.2-1.1-1.2H78.9v-9.1c0-2.1 1.7-3.9 3.9-3.9h8.7a1.11 1.11 0 0 0 1.1-1.1V30.4a1.11 1.11 0 0 0-1.1-1.1H76.8c-8.6 0-15.6 7-15.6 15.6v12.4h-7.8a1.11 1.11 0 0 0-1.1 1.1v12.8a1.11 1.11 0 0 0 1.1 1.1h7.8v.6zm265 18.4c0 10.3-8.4 18.7-18.7 18.7h-35.9c-10.3 0-18.7-8.4-18.7-18.7V55.4c0-10.3 8.4-18.7 18.7-18.7h35.9c10.3 0 18.7 8.4 18.7 18.7v35.9zm8.5-35.9c0-15-12.2-27.2-27.2-27.2h-35.9c-15 0-27.2 12.2-27.2 27.2v35.9c0 15 12.2 27.2 27.2 27.2h35.9c15 0 27.2-12.2 27.2-27.2V55.4zm-44.9 32.8a14.3 14.3 0 1 1 14.3-14.3c0 7.9-6.5 14.3-14.3 14.3m0-36.6c-12.3 0-22.3 10-22.3 22.3s10 22.3 22.3 22.3 22.3-10 22.3-22.3-10-22.3-22.3-22.3m23.6-6.8a5.34 5.34 0 0 0-5.3 5.3 5.34 5.34 0 0 0 5.3 5.3 5.34 5.34 0 0 0 5.3-5.3 5.34 5.34 0 0 0-5.3-5.3M289.2 9c-35.8 0-64.9 29.1-64.9 64.9s29.1 64.9 64.9 64.9 64.9-29.1 64.9-64.9S325 9 289.2 9m0 136.6c-39.5 0-71.7-32.2-71.7-71.7s32.2-71.7 71.7-71.7 71.7 32.2 71.7 71.7-32.2 71.7-71.7 71.7" clip-path="url(#B)" fill="#333033"/></svg>