<svg xmlns="http://www.w3.org/2000/svg" xmlns:xlink="http://www.w3.org/1999/xlink" viewBox="0 0 145 145"><defs><path id="A" d="M-216.6-1.1H144v145.3h-360.6z"/></defs><clipPath id="B"><use xlink:href="#A"/></clipPath><path d="M-144.4 6.6c-35.5 0-64.4 28.9-64.4 64.4s28.9 64.4 64.4 64.4S-80 106.5-80 71-108.9 6.6-144.4 6.6m0 136.7c-39.8 0-72.2-32.4-72.2-72.2s32.4-72.2 72.2-72.2 72.2 32.4 72.2 72.2-32.4 72.2-72.2 72.2m-11.3-71.9v41.8a1.11 1.11 0 0 0 1.1 1.1h15.5a1.11 1.11 0 0 0 1.1-1.1V70.7h11.3c.6 0 1-.4 1.1-1l1.1-12.8c.1-.6-.4-1.2-1.1-1.2H-138v-9.1c0-2.1 1.7-3.9 3.9-3.9h8.7a1.11 1.11 0 0 0 1.1-1.1V28.9a1.11 1.11 0 0 0-1.1-1.1h-14.7c-8.6 0-15.6 7-15.6 15.6v12.4h-7.8a1.11 1.11 0 0 0-1.1 1.1v12.8a1.11 1.11 0 0 0 1.1 1.1h7.8v.6zm265 18.4c0 10.3-8.4 18.7-18.7 18.7H54.8c-10.3 0-18.7-8.4-18.7-18.7V53.9c0-10.3 8.4-18.7 18.7-18.7h35.9c10.3 0 18.7 8.4 18.7 18.7v35.9zm8.5-35.9c0-15-12.2-27.2-27.2-27.2H54.8c-15 0-27.2 12.2-27.2 27.2v35.9c0 15 12.2 27.2 27.2 27.2h35.9c15 0 27.2-12.2 27.2-27.2V53.9zM72.9 86.7a14.3 14.3 0 1 1 14.3-14.3c0 7.9-6.5 14.3-14.3 14.3m0-36.6c-12.3 0-22.3 10-22.3 22.3s10 22.3 22.3 22.3 22.3-10 22.3-22.3-10-22.3-22.3-22.3m23.6-6.8a5.34 5.34 0 0 0-5.3 5.3 5.34 5.34 0 0 0 5.3 5.3 5.34 5.34 0 0 0 5.3-5.3 5.34 5.34 0 0 0-5.3-5.3M72.3 7.5C36.5 7.5 7.4 36.6 7.4 72.4s29.1 64.9 64.9 64.9 64.9-29.1 64.9-64.9S108.1 7.5 72.3 7.5m0 136.6C32.8 144.1.6 111.9.6 72.4S32.7.7 72.3.7 144 32.9 144 72.4s-32.2 71.7-71.7 71.7" clip-path="url(#B)" fill="#333033"/></svg>